<?xml version="1.0" encoding="utf-8"?><svg version="1.1" id="Layer_1" xmlns="http://www.w3.org/2000/svg" xmlns:xlink="http://www.w3.org/1999/xlink" x="0px" y="0px" viewBox="0 0 92.56 122.88" style="enable-background:new 0 0 92.56 122.88" xml:space="preserve"><g><path d="M44.73,115.1L4.67,34.14l40.05,21.33V115.1L44.73,115.1L44.73,115.1z M54.41,0l0.22,9.66h-0.88 c-0.41-2.42-1.43-4.36-3.04-5.84c-1.63-1.47-3.37-2.21-5.25-2.21C44,1.62,42.85,2,42,2.78c-0.85,0.77-1.27,1.67-1.27,2.67 c0,0.64,0.15,1.21,0.45,1.71c0.41,0.66,1.07,1.33,1.99,1.98c0.67,0.47,2.22,1.3,4.63,2.5c3.4,1.66,5.68,3.24,6.87,4.71 c1.17,1.48,1.76,3.17,1.76,5.08c0,2.42-0.95,4.5-2.83,6.24c-1.89,1.74-4.29,2.62-7.19,2.62c-0.91,0-1.78-0.09-2.59-0.28 c-0.82-0.18-1.84-0.53-3.06-1.05c-0.69-0.28-1.25-0.42-1.69-0.42c-0.37,0-0.76,0.15-1.17,0.43c-0.42,0.29-0.75,0.73-1.01,1.32 h-0.74V19.37h0.74c0.63,3.07,1.84,5.41,3.62,7.02c1.79,1.61,3.72,2.42,5.79,2.42c1.6,0,2.87-0.44,3.82-1.3s1.42-1.87,1.42-3.03 c0-0.68-0.18-1.34-0.55-1.98s-0.91-1.25-1.65-1.83c-0.74-0.58-2.05-1.33-3.93-2.25c-2.64-1.29-4.53-2.4-5.68-3.31 c-1.14-0.91-2.03-1.93-2.64-3.05c-0.62-1.13-0.93-2.37-0.93-3.72c0-2.31,0.85-4.28,2.54-5.9C40.37,0.81,42.51,0,45.09,0 c0.94,0,1.85,0.11,2.73,0.34c0.67,0.17,1.49,0.49,2.45,0.95c0.96,0.46,1.63,0.69,2.02,0.69c0.37,0,0.66-0.11,0.88-0.34 c0.21-0.23,0.41-0.77,0.6-1.63H54.41L54.41,0z M47.59,121.92l44.82-90.58c0.36-0.72,0.06-1.61-0.67-1.97 c-0.44-0.22-0.94-0.19-1.34,0.03V29.4L46.2,52.93L2.01,29.39L0,31.34l44.89,90.71h0.01c0.24,0.49,0.73,0.82,1.31,0.82l0,0 C46.82,122.88,47.37,122.5,47.59,121.92L47.59,121.92L47.59,121.92L47.59,121.92z"/></g></svg>